<?xml version="1.0" encoding="UTF-8"?>
<!DOCTYPE svg PUBLIC "-//W3C//DTD SVG 1.1//EN" "http://www.w3.org/Graphics/SVG/1.1/DTD/svg11.dtd">
<svg xmlns="http://www.w3.org/2000/svg" version="1.1" width="1200px" height="357px" style="shape-rendering:geometricPrecision; text-rendering:geometricPrecision; image-rendering:optimizeQuality; fill-rule:evenodd; clip-rule:evenodd" xmlns:xlink="http://www.w3.org/1999/xlink">
<g><path style="opacity:0.994" fill="#10e8ca" d="M 152.5,30.5 C 163.505,30.3335 174.505,30.5002 185.5,31C 208.636,52.4687 231.47,74.302 254,96.5C 276.414,75.0186 298.58,53.1853 320.5,31C 331.828,30.5001 343.162,30.3335 354.5,30.5C 322.055,89.3838 288.555,147.717 254,205.5C 219.664,147.5 185.831,89.1665 152.5,30.5 Z M 204.5,72.5 C 204.897,71.475 205.563,71.3083 206.5,72C 222.252,81.2929 238.085,90.4596 254,99.5C 270.164,90.419 286.164,81.0857 302,71.5C 286.619,99.956 270.619,128.289 254,156.5C 237.726,128.272 221.226,100.272 204.5,72.5 Z"/></g>
<g><path style="opacity:0.992" fill="#15e8ca" d="M 4.5,50.5 C 49.1667,50.5 93.8333,50.5 138.5,50.5C 138.5,60.1667 138.5,69.8333 138.5,79.5C 104.832,79.3333 71.165,79.5 37.5,80C 38.8333,89.6667 38.8333,99.3333 37.5,109C 67.4981,109.5 97.4981,109.667 127.5,109.5C 127.5,119.5 127.5,129.5 127.5,139.5C 97.4981,139.333 67.4981,139.5 37.5,140C 38.4891,152.754 38.8224,165.587 38.5,178.5C 27.1667,178.5 15.8333,178.5 4.5,178.5C 4.5,135.833 4.5,93.1667 4.5,50.5 Z"/></g>
<g><path style="opacity:0.995" fill="#09e8ca" d="M 368.5,50.5 C 383.504,50.3334 398.504,50.5001 413.5,51C 430.874,80.2495 448.374,109.416 466,138.5C 483.167,109.333 500.333,80.1667 517.5,51C 532.496,50.5001 547.496,50.3334 562.5,50.5C 562.5,93.1667 562.5,135.833 562.5,178.5C 551.167,178.5 539.833,178.5 528.5,178.5C 528.667,150.831 528.5,123.165 528,95.5C 511.751,122.999 495.251,150.333 478.5,177.5C 469.833,178.833 461.167,178.833 452.5,177.5C 436.199,150.035 419.699,122.702 403,95.5C 402.5,123.165 402.333,150.831 402.5,178.5C 391.167,178.5 379.833,178.5 368.5,178.5C 368.5,135.833 368.5,93.1667 368.5,50.5 Z"/></g>
<g><path style="opacity:0.203" fill="#9df5e9" d="M 243.5,235.5 C 236.08,235.203 228.746,235.536 221.5,236.5C 220.262,236.19 220.262,235.69 221.5,235C 229.012,234.178 236.345,234.345 243.5,235.5 Z"/></g>
<g><path style="opacity:0.988" fill="#10e8ca" d="M 221.5,236.5 C 228.746,235.536 236.08,235.203 243.5,235.5C 254.722,254.935 266.222,274.269 278,293.5C 289,274.167 300,254.833 311,235.5C 318.413,234.519 325.913,234.186 333.5,234.5C 318.636,262.556 302.969,290.222 286.5,317.5C 280.5,318.833 274.5,318.833 268.5,317.5C 252.569,290.636 236.902,263.636 221.5,236.5 Z"/></g>
<g><path style="opacity:0.978" fill="#13e8ca" d="M 339.5,234.5 C 365.833,234.5 392.167,234.5 418.5,234.5C 418.5,241.167 418.5,247.833 418.5,254.5C 398.833,254.5 379.167,254.5 359.5,254.5C 359.5,258.833 359.5,263.167 359.5,267.5C 375.167,267.5 390.833,267.5 406.5,267.5C 406.5,274.167 406.5,280.833 406.5,287.5C 390.922,287.824 375.422,287.491 360,286.5C 359.501,290.821 359.334,295.154 359.5,299.5C 379.167,299.5 398.833,299.5 418.5,299.5C 418.5,305.833 418.5,312.167 418.5,318.5C 392.167,318.5 365.833,318.5 339.5,318.5C 339.5,290.5 339.5,262.5 339.5,234.5 Z"/></g>
<g><path style="opacity:0.951" fill="#00e7c9" d="M 447.5,235.5 C 447.5,256.833 447.5,278.167 447.5,299.5C 469.167,299.5 490.833,299.5 512.5,299.5C 512.5,305.5 512.5,311.5 512.5,317.5C 484.5,317.5 456.5,317.5 428.5,317.5C 428.5,290.167 428.5,262.833 428.5,235.5C 434.833,235.5 441.167,235.5 447.5,235.5 Z"/></g>
<g><path style="opacity:0.924" fill="#0de8ca" d="M 530.5,234.5 C 549.836,234.333 569.17,234.5 588.5,235C 595.333,237.167 599.833,241.667 602,248.5C 602.667,267.5 602.667,286.5 602,305.5C 600.353,310.156 597.52,313.989 593.5,317C 571.922,318.644 550.255,318.977 528.5,318C 523.243,315.744 519.743,311.91 518,306.5C 517.333,286.5 517.333,266.5 518,246.5C 520.744,240.921 524.911,236.921 530.5,234.5 Z M 537.5,254.5 C 552.5,254.5 567.5,254.5 582.5,254.5C 582.5,269.5 582.5,284.5 582.5,299.5C 567.5,299.5 552.5,299.5 537.5,299.5C 537.5,284.5 537.5,269.5 537.5,254.5 Z"/></g>
<g><path style="opacity:0.921" fill="#11e8ca" d="M 626.5,234.5 C 650.5,234.5 674.5,234.5 698.5,234.5C 698.811,241.09 698.478,247.59 697.5,254C 676.5,254.333 655.5,254.667 634.5,255C 633.841,262.257 633.508,269.59 633.5,277C 633.508,284.41 633.841,291.743 634.5,299C 655.5,299.333 676.5,299.667 697.5,300C 698.476,306.076 698.81,312.242 698.5,318.5C 673.831,318.667 649.164,318.5 624.5,318C 619.243,315.744 615.743,311.91 614,306.5C 613.333,286.833 613.333,267.167 614,247.5C 616.327,241.341 620.494,237.007 626.5,234.5 Z"/></g>
<g><path style="opacity:0.931" fill="#0ce8ca" d="M 705.5,234.5 C 711.833,234.5 718.167,234.5 724.5,234.5C 724.5,262.5 724.5,290.5 724.5,318.5C 718.167,318.5 711.833,318.5 705.5,318.5C 705.5,290.5 705.5,262.5 705.5,234.5 Z"/></g>
<g><path style="opacity:0.9" fill="#09e8ca" d="M 732.5,234.5 C 739.532,234.17 746.532,234.503 753.5,235.5C 762.522,246.021 771.355,256.688 780,267.5C 789.542,256.96 798.709,246.127 807.5,235C 814.492,234.5 821.492,234.334 828.5,234.5C 828.5,262.5 828.5,290.5 828.5,318.5C 821.5,318.5 814.5,318.5 807.5,318.5C 807.667,301.163 807.5,283.83 807,266.5C 798.675,277.487 789.675,287.82 780,297.5C 770.648,287.147 761.648,276.48 753,265.5C 752.5,283.164 752.333,300.83 752.5,318.5C 745.833,318.5 739.167,318.5 732.5,318.5C 732.5,290.5 732.5,262.5 732.5,234.5 Z"/></g>
<g><path style="opacity:0.913" fill="#10e8ca" d="M 839.5,234.5 C 865.833,234.5 892.167,234.5 918.5,234.5C 918.5,241.167 918.5,247.833 918.5,254.5C 898.831,254.333 879.164,254.5 859.5,255C 860.833,259 860.833,263 859.5,267C 875.497,267.5 891.497,267.667 907.5,267.5C 907.811,274.09 907.478,280.59 906.5,287C 891.17,287.5 875.837,287.667 860.5,287.5C 860.5,291.5 860.5,295.5 860.5,299.5C 879.833,299.5 899.167,299.5 918.5,299.5C 918.5,305.833 918.5,312.167 918.5,318.5C 892.167,318.5 865.833,318.5 839.5,318.5C 839.5,290.5 839.5,262.5 839.5,234.5 Z"/></g>
<g><path style="opacity:0.916" fill="#16e8ca" d="M 923.5,234.5 C 952.167,234.5 980.833,234.5 1009.5,234.5C 1009.5,241.167 1009.5,247.833 1009.5,254.5C 998.5,254.5 987.5,254.5 976.5,254.5C 976.5,275.833 976.5,297.167 976.5,318.5C 969.833,318.5 963.167,318.5 956.5,318.5C 956.5,297.167 956.5,275.833 956.5,254.5C 945.5,254.5 934.5,254.5 923.5,254.5C 923.5,247.833 923.5,241.167 923.5,234.5 Z"/></g>
<g><path style="opacity:0.922" fill="#10e8ca" d="M 1016.5,234.5 C 1042.5,234.333 1068.5,234.5 1094.5,235C 1095.83,241.333 1095.83,247.667 1094.5,254C 1075.17,254.5 1055.84,254.667 1036.5,254.5C 1036.5,258.833 1036.5,263.167 1036.5,267.5C 1052.17,267.5 1067.83,267.5 1083.5,267.5C 1083.5,274.167 1083.5,280.833 1083.5,287.5C 1067.83,287.5 1052.17,287.5 1036.5,287.5C 1036.5,291.5 1036.5,295.5 1036.5,299.5C 1055.84,299.333 1075.17,299.5 1094.5,300C 1095.48,306.076 1095.81,312.242 1095.5,318.5C 1069.17,318.5 1042.83,318.5 1016.5,318.5C 1016.5,290.5 1016.5,262.5 1016.5,234.5 Z"/></g>
<g><path style="opacity:0.932" fill="#17e8ca" d="M 1104.5,234.5 C 1128.17,234.333 1151.84,234.5 1175.5,235C 1182.06,237.015 1186.56,241.182 1189,247.5C 1189.67,258.167 1189.67,268.833 1189,279.5C 1185.78,286.723 1180.28,290.89 1172.5,292C 1177.88,298.593 1183.38,305.093 1189,311.5C 1189.5,313.81 1189.66,316.143 1189.5,318.5C 1182.49,318.666 1175.49,318.5 1168.5,318C 1161.5,309.667 1154.5,301.333 1147.5,293C 1139.84,292.5 1132.17,292.334 1124.5,292.5C 1124.5,301.167 1124.5,309.833 1124.5,318.5C 1117.83,318.5 1111.17,318.5 1104.5,318.5C 1104.5,290.5 1104.5,262.5 1104.5,234.5 Z M 1124.5,254.5 C 1139.5,254.5 1154.5,254.5 1169.5,254.5C 1169.5,260.5 1169.5,266.5 1169.5,272.5C 1154.5,272.5 1139.5,272.5 1124.5,272.5C 1124.5,266.5 1124.5,260.5 1124.5,254.5 Z"/></g>
<g><path style="opacity:0.998" fill="#09e1c4" d="M 23.5,240.5 C 22.1778,249.675 22.1778,259.008 23.5,268.5C 24.1067,268.376 24.44,268.043 24.5,267.5C 29.1179,263.694 34.4512,261.194 40.5,260C 49.9789,258.94 59.3122,259.607 68.5,262C 80.1,267.445 85.7667,276.612 85.5,289.5C 84.9292,307.572 75.5959,317.406 57.5,319C 44.93,320.745 33.5967,317.912 23.5,310.5C 22.4902,312.013 22.1569,314.347 22.5,317.5C 16.8333,317.5 11.1667,317.5 5.5,317.5C 5.5,291.5 5.5,265.5 5.5,239.5C 11.69,239.177 17.69,239.51 23.5,240.5 Z M 36.5,274.5 C 42.5092,274.334 48.5092,274.501 54.5,275C 67.0607,278.629 70.5607,286.462 65,298.5C 59.2193,302.629 52.7193,304.629 45.5,304.5C 39.1515,304.293 33.1515,302.793 27.5,300C 23.2186,294.377 22.3853,288.21 25,281.5C 28.2251,277.979 32.0584,275.646 36.5,274.5 Z"/></g>
<g><path style="opacity:0.157" fill="#002622" d="M 23.5,240.5 C 23.1734,249.682 23.5067,258.682 24.5,267.5C 24.44,268.043 24.1067,268.376 23.5,268.5C 22.1778,259.008 22.1778,249.675 23.5,240.5 Z"/></g>
<g><path style="opacity:0.624" fill="#03b39b" d="M 105.5,261.5 C 99.0738,260.88 93.0738,261.547 87.5,263.5C 86.1522,262.473 85.6522,261.14 86,259.5C 92.5991,260.15 99.0991,260.816 105.5,261.5 Z"/></g>
<g><path style="opacity:0.998" fill="#05dfc3" d="M 87.5,263.5 C 93.0738,261.547 99.0738,260.88 105.5,261.5C 113.814,276.124 121.647,291.124 129,306.5C 136.167,291.5 143.333,276.5 150.5,261.5C 157.167,260.167 163.833,260.167 170.5,261.5C 157.372,288.257 144.372,315.09 131.5,342C 125.141,342.831 118.807,342.664 112.5,341.5C 115.766,333.8 119.433,326.3 123.5,319C 120.574,318.782 117.74,318.282 115,317.5C 105.552,299.603 96.385,281.603 87.5,263.5 Z"/></g>
<g><path style="opacity:0.201" fill="#033932" d="M 23.5,310.5 C 23.5,313.167 23.5,315.833 23.5,318.5C 17.31,318.823 11.31,318.49 5.5,317.5C 11.1667,317.5 16.8333,317.5 22.5,317.5C 22.1569,314.347 22.4902,312.013 23.5,310.5 Z"/></g>
<g><path style="opacity:0.667" fill="#54efdb" d="M 447.5,235.5 C 441.167,235.5 434.833,235.5 428.5,235.5C 428.5,262.833 428.5,290.167 428.5,317.5C 456.5,317.5 484.5,317.5 512.5,317.5C 484.338,318.498 456.005,318.831 427.5,318.5C 427.5,290.5 427.5,262.5 427.5,234.5C 434.354,234.176 441.021,234.509 447.5,235.5 Z"/></g>
</svg>
